<?xml version="1.0" encoding="UTF-8"?> <svg xmlns="http://www.w3.org/2000/svg" width="940.997" height="203.99" viewBox="0 0 940.997 203.99"><path id="Subtraction_14" data-name="Subtraction 14" d="M13664,23015.99h-941V22812h941v203.99h0Zm-347.586-37.027a11.442,11.442,0,0,0-4.454.844,9.5,9.5,0,0,0-3.5,2.529,12.3,12.3,0,0,0-2.837,8.371c0,3.633.923,6.508,2.744,8.549,1.9,2.209,4.547,3.283,8.1,3.283,5.763,0,9.326-2.754,10.3-7.963l-3.916-.316a5.67,5.67,0,0,1-1.983,3.8,7,7,0,0,1-4.452,1.24,5.9,5.9,0,0,1-4.745-1.812c-1.059-1.217-1.6-3.023-1.644-5.523l17.058,0a15.2,15.2,0,0,0-1.889-8.555A10.18,10.18,0,0,0,13316.412,22978.963Zm-65.785,0a11.455,11.455,0,0,0-4.456.844,9.59,9.59,0,0,0-3.51,2.529,12.314,12.314,0,0,0-2.836,8.371c0,3.635.923,6.512,2.743,8.549,1.9,2.209,4.548,3.281,8.1,3.283,5.764,0,9.327-2.754,10.3-7.963l-3.91-.316a5.689,5.689,0,0,1-1.986,3.8,6.99,6.99,0,0,1-4.448,1.24,5.91,5.91,0,0,1-4.75-1.812c-1.059-1.217-1.595-3.023-1.639-5.523l17.052,0a15.147,15.147,0,0,0-1.89-8.555A10.17,10.17,0,0,0,13250.627,22978.963Zm-83.253,0a11.455,11.455,0,0,0-4.456.844,9.59,9.59,0,0,0-3.51,2.529,12.309,12.309,0,0,0-2.83,8.371c0,3.641.923,6.518,2.743,8.549,1.9,2.209,4.548,3.281,8.1,3.283,5.764,0,9.327-2.754,10.3-7.963l-3.916-.316a5.664,5.664,0,0,1-1.984,3.8,7,7,0,0,1-4.45,1.24,5.906,5.906,0,0,1-4.746-1.812c-1.06-1.217-1.6-3.023-1.643-5.523l17.057,0a15.142,15.142,0,0,0-1.895-8.555A10.158,10.158,0,0,0,13167.374,22978.963Zm-75.779,0a9.481,9.481,0,0,0-7.385,3.229,12.792,12.792,0,0,0-2.827,8.561,12.609,12.609,0,0,0,2.929,8.645,9.329,9.329,0,0,0,3.274,2.332,10.541,10.541,0,0,0,4.142.811,8.021,8.021,0,0,0,7.11-3.826V23002h4.05v-31.5l-4.05,0v11.924A8.276,8.276,0,0,0,13091.595,22978.963Zm-49.317,3.189c1.913,0,3.443.557,4.1,1.49.651.916.762,2,.762,4.09l-7.422,1.443a13.514,13.514,0,0,0-5.161,1.871,5.7,5.7,0,0,0-2.493,5.014,5.889,5.889,0,0,0,2.364,4.893,8.671,8.671,0,0,0,5.2,1.586,10.373,10.373,0,0,0,4.743-.973,6.3,6.3,0,0,0,2.818-2.895,3.816,3.816,0,0,0,1.18,2.631,4.272,4.272,0,0,0,2.869.877,15.72,15.72,0,0,0,2.519-.18l-.087-3.328a5.684,5.684,0,0,1-1.306.182c-1.3,0-1.3-.537-1.3-1.713v-10.754a7,7,0,0,0-2.15-5.553c-1.429-1.242-3.582-1.871-6.4-1.871a12.509,12.509,0,0,0-6.886,1.664c-1.765,1.172-2.7,3.137-2.79,5.846l3.957.545a4.654,4.654,0,0,1,1.277-3.715A6.211,6.211,0,0,1,13042.277,22982.152Zm287.051-2.65v3.371h3.24v14.09c0,3.639,1.86,5.264,6.03,5.264a14.863,14.863,0,0,0,2.479-.227l-.093-3.646a13.219,13.219,0,0,1-2.067.229c-1.65,0-2.34-.244-2.34-1.758v-13.951h4.587v-3.373l-4.587,0v-6.258l-4.009,0v6.254Zm-103.678,0v3.371h3.24v14.09a5,5,0,0,0,1.445,4,6.8,6.8,0,0,0,4.585,1.266,14.719,14.719,0,0,0,2.473-.227l-.087-3.646a13.381,13.381,0,0,1-2.073.229c-1.618,0-2.34-.254-2.34-1.758v-13.951h4.592v-3.373l-4.592,0v-6.258l-4,0v6.254Zm-108.721,0v3.371h3.24v14.09a5,5,0,0,0,1.445,4,6.8,6.8,0,0,0,4.585,1.266,14.719,14.719,0,0,0,2.473-.227l-.087-3.646a13.381,13.381,0,0,1-2.073.229c-1.618,0-2.34-.254-2.34-1.758v-13.951h4.592v-3.373l-4.592,0v-6.258l-4,0v6.254Zm227.746,17.729v4.77h4.546v-4.771l-4.546,0Zm-53.009-14.893a5.1,5.1,0,0,1,4,1.3c1.355,1.266,1.354,3.008,1.352,5.023V23002h4.182v-13.367c0-2.219,0-5.26-1.756-7.15-1.624-1.719-3.753-2.52-6.7-2.52a8.589,8.589,0,0,0-4.4,1.033,6.291,6.291,0,0,0-2.536,2.924v-3.42l-4.049,0v22.5h4.049v-12.42c0-2.8.734-4.836,2.183-6.035A5.725,5.725,0,0,1,13291.667,22982.338Zm-25.785-2.836v22.5h4.049v-10.664c0-3.389.683-5.684,2.086-7.016,1.151-1.092,2.785-1.58,5.3-1.58a6.678,6.678,0,0,1,1.034.047l.087-3.824-.15,0c-.684,0-1.147.014-1.38.039a9.538,9.538,0,0,0-4.632,1.52,5.593,5.593,0,0,0-2.341,2.939v-3.963Zm-53.28,2.836a5.1,5.1,0,0,1,4,1.3c1.354,1.264,1.353,3,1.352,5.018V23002h4.183v-13.367c0-2.219,0-5.258-1.757-7.15-1.624-1.719-3.753-2.52-6.7-2.52a8.589,8.589,0,0,0-4.4,1.033,6.291,6.291,0,0,0-2.536,2.924v-3.42l-4.049,0v22.5h4.049v-12.42c0-2.807.734-4.836,2.183-6.035A5.728,5.728,0,0,1,13212.6,22982.338Zm-19.894-2.836v22.5h4.05v-22.5l-4.05,0Zm-50.086,2.836a5.1,5.1,0,0,1,4.009,1.3c1.354,1.27,1.353,2.977,1.352,4.955v13.4h4.183v-13.453c0-2.182,0-5.172-1.757-7.064-1.624-1.719-3.755-2.52-6.706-2.52-3.335,0-5.73,1.352-6.926,3.91V22970.5l-4.055,0v31.5h4.055v-12.645c0-2.838.729-4.842,2.164-5.957A5.869,5.869,0,0,1,13142.622,22982.338Zm-75.2,0a5.1,5.1,0,0,1,4.009,1.3c1.354,1.27,1.353,3.018,1.352,5.041V23002h4.183v-13.367c0-2.219,0-5.258-1.756-7.15-1.625-1.719-3.756-2.52-6.707-2.52a8.564,8.564,0,0,0-4.39,1.033,6.291,6.291,0,0,0-2.536,2.924v-3.42l-4.049,0v22.5h4.049v-12.42c0-2.8.734-4.834,2.182-6.035A5.716,5.716,0,0,1,13067.427,22982.338Zm125.281-11.838v4.768l4.05,0v-4.768l-4.05,0Zm-91.617-11.5-.092,3.777a12.937,12.937,0,0,0,3.419.451,4.692,4.692,0,0,0,3.759-1.721,17.7,17.7,0,0,0,2.814-5.432l9.179-24.572-4.229,0-4.32,12.15c-.669,1.91-1.166,3.359-2.027,5.984-.827-2.6-1.493-4.613-1.981-5.984l-4.274-12.152-4.32,0,8.779,22.318c-1.533,3.932-2.28,5.67-3.916,5.672A8.781,8.781,0,0,1,13101.091,22959Zm-61.563-3.646-3.87.271a7.029,7.029,0,0,0,3.21,5.928,11.749,11.749,0,0,0,6.379,1.676c6.659,0,10.8-3.725,10.8-9.717V22931.5l-4.049,0v3.146a8.043,8.043,0,0,0-7.244-3.686,10.439,10.439,0,0,0-4.134.814,9.229,9.229,0,0,0-3.213,2.289,11.773,11.773,0,0,0-2.825,8.1,12.533,12.533,0,0,0,2.824,8.465,9.662,9.662,0,0,0,7.48,3.2,7.873,7.873,0,0,0,7.111-3.873v3.824a6.265,6.265,0,0,1-1.781,4.686,6.384,6.384,0,0,1-4.516,1.617,7.769,7.769,0,0,1-4.366-.963A4.44,4.44,0,0,1,13039.527,22955.35Zm-142.24,0-3.87.271a7.02,7.02,0,0,0,3.2,5.928,11.749,11.749,0,0,0,6.379,1.676c6.663,0,10.8-3.725,10.8-9.717V22931.5l-4.049,0v3.146a8.063,8.063,0,0,0-7.249-3.686,10.439,10.439,0,0,0-4.134.814,9.24,9.24,0,0,0-3.211,2.289,11.78,11.78,0,0,0-2.822,8.1,12.537,12.537,0,0,0,2.822,8.465,9.661,9.661,0,0,0,7.482,3.2,7.886,7.886,0,0,0,7.111-3.873v3.824a6.259,6.259,0,0,1-1.784,4.686,6.393,6.393,0,0,1-4.518,1.617,7.766,7.766,0,0,1-4.364-.963A4.428,4.428,0,0,1,12897.287,22955.35Zm661.769-9.092-3.691.359a7.158,7.158,0,0,0,1.993,5.311c1.672,1.686,4.353,2.615,7.55,2.615a12.206,12.206,0,0,0,6.338-1.475,6.14,6.14,0,0,0,2.927-5.592,6,6,0,0,0-.738-3.086,5.369,5.369,0,0,0-1.948-1.912,19.8,19.8,0,0,0-5.937-1.873c-.17-.035-.339-.068-.508-.105-2.658-.576-5.4-1.17-5.4-3.24,0-2.037,2.264-3.1,4.5-3.1a6.3,6.3,0,0,1,4.136,1.219,4.574,4.574,0,0,1,1.536,3.551l3.778-.59a7.37,7.37,0,0,0-3.1-5.746,11.022,11.022,0,0,0-6.307-1.629,10.289,10.289,0,0,0-5.662,1.529,5.807,5.807,0,0,0-2.661,5.039,5.168,5.168,0,0,0,2.255,4.557,15.738,15.738,0,0,0,4.988,1.922c.563.148,1.176.283,1.807.42,2.673.58,5.437,1.18,5.437,3.268a3.065,3.065,0,0,1-1.382,2.721,7.567,7.567,0,0,1-4.151.932,6.082,6.082,0,0,1-4.459-1.6A4.743,4.743,0,0,1,13559.056,22946.258Zm-52.65-12.1c1.915,0,3.445.553,4.095,1.482s.763,1.959.763,4.1l-7.423,1.439a13.489,13.489,0,0,0-5.155,1.871,5.706,5.706,0,0,0-2.492,5.014,5.89,5.89,0,0,0,2.361,4.895,8.642,8.642,0,0,0,5.194,1.588,10.344,10.344,0,0,0,4.745-.975,6.308,6.308,0,0,0,2.815-2.9,3.818,3.818,0,0,0,1.183,2.631,4.272,4.272,0,0,0,2.867.877,15.035,15.035,0,0,0,2.524-.182l-.093-3.326a5.659,5.659,0,0,1-1.306.18c-1.306,0-1.306-.537-1.306-1.711v-10.756a6.993,6.993,0,0,0-2.147-5.551c-1.428-1.242-3.582-1.871-6.4-1.871a12.532,12.532,0,0,0-6.885,1.664c-1.758,1.166-2.7,3.133-2.79,5.846l3.963.545C13500.918,22935.566,13502.508,22934.158,13506.405,22934.158Zm-48.284-3.2a10.778,10.778,0,0,0-8.161,3.295,13.77,13.77,0,0,0,0,17.156,10.923,10.923,0,0,0,8.161,3.129c5.234,0,9.139-2.916,9.947-7.43l-3.83-.4a6.118,6.118,0,0,1-2.079,3.51,6.54,6.54,0,0,1-4.038,1.082c-2.575,0-4.34-.775-5.4-2.369-.895-1.346-1.311-3.311-1.311-6.18,0-3.012.472-5.059,1.484-6.439,1.093-1.424,2.8-2.113,5.222-2.113,4.2,0,5.452,2.764,6.077,5.174l3.777-.717a9.639,9.639,0,0,0-3.123-5.449A10.08,10.08,0,0,0,13458.121,22930.963Zm-49.906,0a11.455,11.455,0,0,0-4.456.844,9.59,9.59,0,0,0-3.51,2.529,12.312,12.312,0,0,0-2.836,8.369c0,3.637.925,6.514,2.749,8.549,1.9,2.213,4.549,3.289,8.1,3.289,5.764,0,9.327-2.756,10.3-7.967l-3.916-.318a5.677,5.677,0,0,1-1.984,3.8,7,7,0,0,1-4.45,1.24,5.907,5.907,0,0,1-4.748-1.812c-1.061-1.217-1.6-3.023-1.641-5.523l17.051,0a15.091,15.091,0,0,0-1.889-8.551A10.158,10.158,0,0,0,13408.215,22930.963Zm-63.856,0a10.884,10.884,0,0,0-8.238,3.328,10.772,10.772,0,0,0-2.232,3.73,14.071,14.071,0,0,0-.776,4.73,12.239,12.239,0,0,0,2.992,8.646,11.047,11.047,0,0,0,8.255,3.145,10.873,10.873,0,0,0,8.134-3.246,12.117,12.117,0,0,0,3.071-8.545,13.886,13.886,0,0,0-.782-4.711,10.927,10.927,0,0,0-2.238-3.734A10.813,10.813,0,0,0,13344.358,22930.963Zm-74.832,0a10.891,10.891,0,0,0-8.242,3.328,13.689,13.689,0,0,0-.018,17.107,11.06,11.06,0,0,0,8.26,3.145,10.876,10.876,0,0,0,8.133-3.246,12.114,12.114,0,0,0,3.073-8.545,13.886,13.886,0,0,0-.782-4.711,10.51,10.51,0,0,0-10.424-7.078Zm-63.724,3.2c1.915,0,3.445.553,4.1,1.482s.769,2.006.769,4.1l-7.429,1.439a13.489,13.489,0,0,0-5.155,1.871,5.706,5.706,0,0,0-2.492,5.014,5.888,5.888,0,0,0,2.362,4.895,8.654,8.654,0,0,0,5.2,1.588,10.355,10.355,0,0,0,4.741-.975,6.332,6.332,0,0,0,2.82-2.9,3.81,3.81,0,0,0,1.178,2.631,4.279,4.279,0,0,0,2.871.877,14.729,14.729,0,0,0,2.519-.182l-.093-3.326a5.638,5.638,0,0,1-1.3.18c-1.3,0-1.3-.537-1.3-1.711v-10.756a6.988,6.988,0,0,0-2.15-5.551c-1.43-1.242-3.585-1.871-6.4-1.871a12.538,12.538,0,0,0-6.886,1.664c-1.759,1.168-2.7,3.133-2.79,5.846l3.963.545a4.647,4.647,0,0,1,1.277-3.713C13202.469,22934.521,13203.807,22934.158,13205.8,22934.158Zm-37.84,0c1.911,0,3.439.553,4.09,1.482s.768,2,.768,4.1l-7.428,1.439a13.5,13.5,0,0,0-5.156,1.871,5.706,5.706,0,0,0-2.492,5.014,5.887,5.887,0,0,0,2.364,4.895,8.655,8.655,0,0,0,5.2,1.588,10.341,10.341,0,0,0,4.743-.975,6.314,6.314,0,0,0,2.818-2.9,3.816,3.816,0,0,0,1.18,2.631,4.272,4.272,0,0,0,2.869.877,14.745,14.745,0,0,0,2.519-.182l-.093-3.326a5.629,5.629,0,0,1-1.3.18c-1.3,0-1.3-.537-1.3-1.711v-10.756a6.988,6.988,0,0,0-2.15-5.551c-1.43-1.242-3.585-1.871-6.4-1.871a12.536,12.536,0,0,0-6.886,1.664c-1.759,1.172-2.7,3.137-2.79,5.846l3.963.545a4.647,4.647,0,0,1,1.277-3.713C13164.625,22934.521,13165.965,22934.158,13167.963,22934.158Zm-26.282-3.2c-6.111,0-10.218,4.736-10.218,11.789a12.609,12.609,0,0,0,2.932,8.646,9.313,9.313,0,0,0,3.276,2.332,10.5,10.5,0,0,0,4.143.813,8.027,8.027,0,0,0,7.11-3.826V22954l4.05,0v-31.5l-4.05,0v11.926A8.273,8.273,0,0,0,13141.681,22930.963Zm-121.053,0a11.443,11.443,0,0,0-4.455.844,9.585,9.585,0,0,0-3.511,2.529,12.307,12.307,0,0,0-2.83,8.369c0,3.637.923,6.514,2.744,8.549,1.9,2.213,4.547,3.289,8.1,3.289,5.764,0,9.327-2.756,10.3-7.967l-3.916-.318a5.674,5.674,0,0,1-1.982,3.8,7,7,0,0,1-4.452,1.24,5.9,5.9,0,0,1-4.745-1.812c-1.059-1.217-1.6-3.023-1.644-5.523l17.058,0a15.187,15.187,0,0,0-1.889-8.551A10.176,10.176,0,0,0,13020.628,22930.963Zm-188.006,0a10.891,10.891,0,0,0-8.242,3.328,13.689,13.689,0,0,0-.018,17.107,11.06,11.06,0,0,0,8.26,3.145,10.869,10.869,0,0,0,8.13-3.246,12.121,12.121,0,0,0,3.07-8.545,13.862,13.862,0,0,0-.782-4.711,10.5,10.5,0,0,0-10.418-7.078Zm525.148.539v3.371h3.24v14.088a5.007,5.007,0,0,0,1.445,4,6.8,6.8,0,0,0,4.585,1.266,13.984,13.984,0,0,0,2.473-.229l-.087-3.645a13.539,13.539,0,0,1-2.073.227c-1.65,0-2.34-.244-2.34-1.758v-13.949h4.592v-3.373l-4.592,0v-6.258l-4,0v6.254Zm-176.806,0v3.371h3.24v14.088a5.007,5.007,0,0,0,1.445,4,6.805,6.805,0,0,0,4.586,1.266,13.956,13.956,0,0,0,2.472-.229l-.087-3.645a13.515,13.515,0,0,1-2.073.227c-1.65,0-2.34-.244-2.34-1.758v-13.949h4.593v-3.373l-4.593,0v-6.258l-4,0v6.254Zm-95.083,0v3.371h3.241v14.088a5.01,5.01,0,0,0,1.444,4,6.809,6.809,0,0,0,4.586,1.266,14.086,14.086,0,0,0,2.472-.229l-.092-3.645a13.374,13.374,0,0,1-2.068.227c-1.649,0-2.339-.244-2.339-1.758v-13.949h4.592v-3.373l-4.592,0v-6.258l-4,0v6.254Zm-90.225,0v3.371h3.234v14.088c0,3.641,1.859,5.266,6.03,5.266a14.138,14.138,0,0,0,2.479-.229l-.093-3.645a13.363,13.363,0,0,1-2.067.227c-1.65,0-2.34-.244-2.34-1.758v-13.949h4.592v-3.373l-4.592,0v-6.258l-4.009,0v6.254Zm-188.416,0v3.371h3.241v14.088a5.01,5.01,0,0,0,1.444,4,6.809,6.809,0,0,0,4.586,1.266,14.077,14.077,0,0,0,2.472-.229l-.092-3.645a13.374,13.374,0,0,1-2.068.227c-1.649,0-2.339-.244-2.339-1.758v-13.949h4.592v-3.373l-4.592,0v-6.258l-4,0v6.254Zm734.307,2.836a5.112,5.112,0,0,1,4.009,1.3c1.354,1.271,1.353,3.021,1.352,5.049V22954l4.182,0v-13.367c0-2.219,0-5.26-1.756-7.152-1.626-1.719-3.757-2.518-6.706-2.518a8.571,8.571,0,0,0-4.392,1.033,6.25,6.25,0,0,0-2.534,2.924v-3.42l-4.049,0v22.5l4.049,0v-12.42c0-2.8.734-4.834,2.182-6.035A5.716,5.716,0,0,1,13541.548,22934.338Zm-19.888-2.836v22.5l4.049,0v-22.5l-4.049,0Zm-39.556,2.836a5.123,5.123,0,0,1,4.009,1.3c1.348,1.264,1.347,2.965,1.346,4.932V22954l4.188,0v-13.455c0-2.182,0-5.172-1.756-7.064-1.632-1.719-3.763-2.518-6.706-2.518-3.34,0-5.737,1.352-6.932,3.91V22922.5l-4.049,0v31.5l4.049,0v-12.646c0-2.834.729-4.838,2.167-5.953A5.872,5.872,0,0,1,13482.1,22934.338Zm-58.635-2.836v22.5l4.049,0v-10.664c0-3.389.683-5.682,2.088-7.014,1.151-1.094,2.784-1.582,5.294-1.582a6.678,6.678,0,0,1,1.034.047l.093-3.824-.151,0c-.687,0-1.15.014-1.38.039a9.543,9.543,0,0,0-4.636,1.52,5.6,5.6,0,0,0-2.342,2.939v-3.963Zm-40.007,2.836a5.11,5.11,0,0,1,4.009,1.3c1.35,1.266,1.348,2.967,1.346,4.936V22954l4.188,0v-13.455c0-2.182,0-5.17-1.756-7.064-1.627-1.719-3.758-2.518-6.707-2.518-3.335,0-5.73,1.352-6.926,3.91V22922.5l-4.055,0v31.5l4.055,0v-12.646c0-2.834.729-4.838,2.164-5.953A5.861,5.861,0,0,1,13383.463,22934.338Zm-74.068-.049a5.184,5.184,0,0,1,3.777,1.26c1.352,1.26,1.352,3.1,1.352,5.223V22954l4.142,0v-14.58c0-5.533-2.692-8.457-7.786-8.457a7.454,7.454,0,0,0-5.263,1.709,7.2,7.2,0,0,0-2.16,3.057,6.9,6.9,0,0,0-2.673-3.514,8.894,8.894,0,0,0-9.792.457,5.2,5.2,0,0,0-1.664,2.2v-3.373l-4.008,0v22.5l4.008,0v-12.42c0-3.686,1.046-5.139,2.068-6.072a4.887,4.887,0,0,1,3.327-1.219,5.193,5.193,0,0,1,3.783,1.26c1.352,1.26,1.352,3.1,1.352,5.223V22954l4.136,0v-12.42c0-3.676,1.049-5.133,2.074-6.072A4.883,4.883,0,0,1,13309.395,22934.289Zm-64.752-2.787v22.5l4.049,0v-10.664c0-3.389.682-5.682,2.085-7.014,1.151-1.094,2.784-1.582,5.292-1.582a6.726,6.726,0,0,1,1.039.047l.087-3.824-.15,0c-.684,0-1.148.014-1.381.039a9.532,9.532,0,0,0-4.633,1.52,5.6,5.6,0,0,0-2.339,2.939v-3.963l-4.049,0Zm-15.3,0v3.371h3.241V22954l4,0v-19.127h4.592v-3.373l-4.592,0v-3.871c0-1.494.727-1.758,2.252-1.758a14.557,14.557,0,0,1,2.161.225l.086-3.6a15.585,15.585,0,0,0-2.472-.223,6.808,6.808,0,0,0-4.585,1.262,5,5,0,0,0-1.445,4v3.963Zm-151.471,0v22.5l4.05,0v-22.5l-4.05,0Zm-15.885,0v22.5l4.05,0v-10.664c0-3.387.683-5.682,2.086-7.014,1.151-1.094,2.785-1.582,5.3-1.582a6.678,6.678,0,0,1,1.034.047l.087-3.824-.15,0c-.684,0-1.148.014-1.381.039a9.531,9.531,0,0,0-4.631,1.52,5.6,5.6,0,0,0-2.341,2.939v-3.963Zm-79.383,2.836a5.11,5.11,0,0,1,4.009,1.3c1.35,1.266,1.348,3.006,1.346,5.021V22954l4.188,0v-13.367c0-2.219,0-5.258-1.757-7.152-1.626-1.719-3.757-2.518-6.706-2.518a8.578,8.578,0,0,0-4.393,1.033,6.253,6.253,0,0,0-2.533,2.924v-3.42l-4.055,0v22.5l4.055,0v-12.42c0-2.8.734-4.834,2.182-6.035A5.717,5.717,0,0,1,12982.6,22934.338Zm-19.888-2.836v22.5l4.05,0v-22.5l-4.05,0Zm-33.074,2.836a5.1,5.1,0,0,1,4,1.3c1.355,1.268,1.354,2.969,1.352,4.939V22954l4.182,0v-13.455c0-2.186,0-5.178-1.75-7.064-1.632-1.719-3.763-2.518-6.706-2.518-3.34,0-5.737,1.352-6.932,3.91V22922.5l-4.049,0v31.5l4.049,0v-12.646c0-2.836.729-4.838,2.165-5.953A5.872,5.872,0,0,1,12929.641,22934.338Zm-45.991-2.836v22.5l4.05,0v-22.5l-4.05,0Zm-15.255,2.836a5.1,5.1,0,0,1,4,1.3c1.355,1.266,1.354,2.967,1.352,4.936V22954l4.188,0v-13.455c0-2.182,0-5.17-1.757-7.064-1.632-1.719-3.763-2.518-6.706-2.518-3.339,0-5.736,1.352-6.932,3.91V22922.5l-4.049,0v31.5l4.049,0v-12.646c0-2.834.729-4.838,2.167-5.953A5.872,5.872,0,0,1,12868.395,22934.338Zm76.143,5.129v3.6l12.6,0v-3.6Zm577.123-16.965v4.77l4.049,0v-4.773l-4.049,0Zm-443.79,0v4.77l4.05,0v-4.773l-4.05,0Zm-115.155,0v4.77l4.05,0v-4.773l-4.05,0Zm-79.065,0v4.77l4.05,0v-4.773l-4.05,0Zm-1.057-39v31.5l4.049,0v-11.926a8.282,8.282,0,0,0,7.244,3.469c6.111,0,10.218-4.738,10.218-11.791a12.609,12.609,0,0,0-2.932-8.646,9.331,9.331,0,0,0-3.277-2.334,10.548,10.548,0,0,0-4.143-.809,8.012,8.012,0,0,0-7.11,3.822v-3.285Zm735.346,14.756-3.69.363a7.15,7.15,0,0,0,1.99,5.307c1.672,1.686,4.354,2.615,7.552,2.615a12.468,12.468,0,0,0,6.335-1.475,6.139,6.139,0,0,0,2.93-5.592,6,6,0,0,0-.738-3.086,5.38,5.38,0,0,0-1.95-1.914,19.836,19.836,0,0,0-5.928-1.871l-.014,0-.253-.051-.249-.053h-.009c-2.65-.574-5.392-1.168-5.392-3.24,0-2.035,2.264-3.1,4.5-3.1a6.3,6.3,0,0,1,4.137,1.219,4.577,4.577,0,0,1,1.536,3.551l3.777-.59a7.377,7.377,0,0,0-3.1-5.746,11.018,11.018,0,0,0-6.3-1.629,10.318,10.318,0,0,0-5.663,1.527,5.812,5.812,0,0,0-2.661,5.039,5.168,5.168,0,0,0,2.255,4.557,15.9,15.9,0,0,0,4.988,1.924c.56.146,1.164.277,1.748.4l.056.014.009,0c2.671.582,5.432,1.186,5.432,3.271a3.062,3.062,0,0,1-1.383,2.717,7.568,7.568,0,0,1-4.151.93,6.083,6.083,0,0,1-4.46-1.6A4.742,4.742,0,0,1,13617.938,22898.258Zm-21.915,0-3.691.363a7.152,7.152,0,0,0,1.991,5.307c1.672,1.686,4.354,2.615,7.552,2.615a12.225,12.225,0,0,0,6.338-1.475,6.14,6.14,0,0,0,2.927-5.592,6,6,0,0,0-.738-3.086,5.38,5.38,0,0,0-1.95-1.914,19.827,19.827,0,0,0-5.928-1.871l-.014,0-.264-.053-.238-.051H13602c-2.651-.574-5.394-1.168-5.394-3.24,0-2.035,2.264-3.1,4.5-3.1a6.3,6.3,0,0,1,4.137,1.219,4.574,4.574,0,0,1,1.536,3.551l3.777-.59a7.377,7.377,0,0,0-3.1-5.746,11.019,11.019,0,0,0-6.3-1.629,10.31,10.31,0,0,0-5.662,1.527,5.807,5.807,0,0,0-2.661,5.039,5.168,5.168,0,0,0,2.255,4.557,15.9,15.9,0,0,0,4.988,1.924c.567.148,1.181.281,1.773.41l.03.008h.007c2.672.584,5.434,1.188,5.434,3.273a3.064,3.064,0,0,1-1.383,2.717,7.568,7.568,0,0,1-4.151.93,6.083,6.083,0,0,1-4.46-1.6A4.742,4.742,0,0,1,13596.023,22898.258Zm-17.508-15.295a11.457,11.457,0,0,0-4.455.844,9.617,9.617,0,0,0-3.511,2.529,12.3,12.3,0,0,0-2.83,8.369c0,3.635.923,6.51,2.744,8.549,1.9,2.213,4.548,3.287,8.1,3.289,5.764,0,9.327-2.756,10.306-7.967l-3.917-.318a5.683,5.683,0,0,1-1.982,3.8,7,7,0,0,1-4.452,1.24,5.9,5.9,0,0,1-4.745-1.812c-1.059-1.215-1.6-3.023-1.644-5.523l17.058,0a15.18,15.18,0,0,0-1.889-8.551A10.183,10.183,0,0,0,13578.516,22882.963Zm-23.578,0a10.779,10.779,0,0,0-8.162,3.295,13.77,13.77,0,0,0,0,17.156,10.922,10.922,0,0,0,8.162,3.129c5.239,0,9.144-2.916,9.946-7.43l-3.824-.4a6.11,6.11,0,0,1-2.082,3.51,6.552,6.552,0,0,1-4.04,1.082c-2.575,0-4.34-.775-5.4-2.369-.895-1.35-1.311-3.312-1.311-6.18,0-3.006.472-5.051,1.484-6.436,1.09-1.426,2.8-2.117,5.222-2.117h0c4.2,0,5.451,2.764,6.076,5.174l3.777-.717a9.646,9.646,0,0,0-3.123-5.451A10.085,10.085,0,0,0,13554.938,22882.963Zm-23.9,0a10.779,10.779,0,0,0-8.162,3.295,13.77,13.77,0,0,0,0,17.156,10.922,10.922,0,0,0,8.162,3.129c5.239,0,9.144-2.916,9.946-7.43l-3.824-.4a6.115,6.115,0,0,1-2.081,3.51,6.553,6.553,0,0,1-4.041,1.082c-2.571,0-4.335-.775-5.392-2.369-.894-1.35-1.31-3.312-1.31-6.18,0-3.014.472-5.061,1.485-6.436,1.09-1.426,2.795-2.117,5.216-2.117,4.2,0,5.451,2.764,6.076,5.174l3.777-.717a9.611,9.611,0,0,0-3.118-5.451A10.1,10.1,0,0,0,13531.041,22882.963Zm-25.063,3.2c1.915,0,3.445.553,4.1,1.482s.762,1.961.762,4.1l-7.422,1.436a13.591,13.591,0,0,0-5.158,1.875,5.707,5.707,0,0,0-2.49,5.014,5.89,5.89,0,0,0,2.361,4.895,8.659,8.659,0,0,0,5.194,1.588,10.331,10.331,0,0,0,4.744-.975,6.311,6.311,0,0,0,2.817-2.9,3.818,3.818,0,0,0,1.182,2.633,4.28,4.28,0,0,0,2.867.877,14.778,14.778,0,0,0,2.524-.182l-.093-3.328a5.707,5.707,0,0,1-1.306.18c-1.3,0-1.3-.537-1.3-1.709v-10.756a6.988,6.988,0,0,0-2.15-5.551c-1.429-1.242-3.582-1.871-6.4-1.871a12.521,12.521,0,0,0-6.886,1.662c-1.759,1.17-2.7,3.137-2.79,5.852l3.963.537C13500.49,22887.564,13502.08,22886.158,13505.978,22886.158Zm-36.361-3.2c-6.108,0-10.213,4.736-10.213,11.789a12.609,12.609,0,0,0,2.932,8.646,9.318,9.318,0,0,0,3.277,2.332,10.5,10.5,0,0,0,4.143.813,8.025,8.025,0,0,0,7.11-3.826V22906l4.049,0v-31.5l-4.049,0v11.926A8.3,8.3,0,0,0,13469.616,22882.963Zm-24.162,0a11.457,11.457,0,0,0-4.455.844,9.617,9.617,0,0,0-3.511,2.529,12.3,12.3,0,0,0-2.836,8.369c0,3.637.923,6.514,2.744,8.549,1.9,2.213,4.55,3.287,8.1,3.289,5.758,0,9.321-2.756,10.3-7.967l-3.916-.318a5.689,5.689,0,0,1-1.986,3.8,6.99,6.99,0,0,1-4.448,1.24,5.91,5.91,0,0,1-4.75-1.812c-1.059-1.217-1.595-3.023-1.639-5.523l17.052,0a15.149,15.149,0,0,0-1.889-8.551A10.163,10.163,0,0,0,13445.454,22882.963Zm-65.208,3.2c1.915,0,3.445.553,4.095,1.482s.769,2.008.769,4.1l-7.429,1.436a13.551,13.551,0,0,0-5.155,1.875,5.711,5.711,0,0,0-2.492,5.014,5.888,5.888,0,0,0,2.362,4.895,8.668,8.668,0,0,0,5.2,1.588,10.318,10.318,0,0,0,4.739-.975,6.312,6.312,0,0,0,2.815-2.9,3.823,3.823,0,0,0,1.184,2.633,4.293,4.293,0,0,0,2.872.877,15,15,0,0,0,2.519-.182l-.093-3.328a5.707,5.707,0,0,1-1.306.18c-1.306,0-1.306-.537-1.306-1.709v-10.756a6.993,6.993,0,0,0-2.147-5.551c-1.428-1.242-3.582-1.871-6.4-1.871a12.547,12.547,0,0,0-6.885,1.662c-1.759,1.17-2.7,3.137-2.79,5.852l3.963.537C13374.759,22887.564,13376.349,22886.158,13380.246,22886.158Zm-78.251-3.2a11.457,11.457,0,0,0-4.455.844,9.617,9.617,0,0,0-3.511,2.529,12.277,12.277,0,0,0-2.836,8.369c0,3.637.923,6.512,2.744,8.549,1.9,2.213,4.548,3.289,8.1,3.289,5.764,0,9.327-2.756,10.3-7.967l-3.91-.318a5.686,5.686,0,0,1-1.987,3.8,6.985,6.985,0,0,1-4.447,1.24,5.914,5.914,0,0,1-4.751-1.812c-1.059-1.217-1.6-3.023-1.644-5.523l17.058,0a15.18,15.18,0,0,0-1.89-8.551A10.175,10.175,0,0,0,13302,22882.963Zm-23.585,0a10.778,10.778,0,0,0-8.161,3.295,13.77,13.77,0,0,0,0,17.156,10.92,10.92,0,0,0,8.161,3.129c5.24,0,9.145-2.916,9.947-7.43l-3.824-.4a6.11,6.11,0,0,1-2.082,3.51,6.553,6.553,0,0,1-4.041,1.082c-2.572,0-4.335-.775-5.391-2.369-.894-1.35-1.31-3.312-1.31-6.18,0-3.014.472-5.059,1.484-6.436,1.09-1.426,2.8-2.117,5.215-2.117h0c4.2,0,5.452,2.764,6.077,5.174l3.777-.717a9.625,9.625,0,0,0-3.119-5.451A10.093,10.093,0,0,0,13278.41,22882.963Zm-25.062,0a11.462,11.462,0,0,0-4.456.844,9.61,9.61,0,0,0-3.51,2.529,12.3,12.3,0,0,0-2.836,8.369c0,3.637.925,6.514,2.749,8.549,1.9,2.213,4.549,3.287,8.1,3.289,5.764,0,9.327-2.756,10.3-7.967l-3.916-.318a5.677,5.677,0,0,1-1.984,3.8,7,7,0,0,1-4.45,1.24,5.91,5.91,0,0,1-4.748-1.812c-1.061-1.219-1.6-3.025-1.641-5.523l17.052,0a15.1,15.1,0,0,0-1.89-8.551A10.163,10.163,0,0,0,13253.348,22882.963Zm-26.732,0c-6.108,0-10.213,4.736-10.213,11.789a12.609,12.609,0,0,0,2.932,8.646,9.318,9.318,0,0,0,3.277,2.332,10.5,10.5,0,0,0,4.143.813,8.026,8.026,0,0,0,7.11-3.826V22906l4.049,0v-31.5l-4.049,0v11.926A8.281,8.281,0,0,0,13226.615,22882.963Zm-34.242,0a11.457,11.457,0,0,0-4.455.844,9.617,9.617,0,0,0-3.511,2.529,12.3,12.3,0,0,0-2.836,8.369c0,3.637.923,6.512,2.744,8.549,1.9,2.213,4.55,3.287,8.1,3.289,5.758,0,9.321-2.756,10.306-7.967l-3.917-.318a5.689,5.689,0,0,1-1.986,3.8,6.99,6.99,0,0,1-4.448,1.24,5.91,5.91,0,0,1-4.748-1.812c-1.06-1.219-1.6-3.025-1.641-5.523l17.052,0a15.149,15.149,0,0,0-1.889-8.551A10.163,10.163,0,0,0,13192.373,22882.963Zm-49.86.539v13.451c0,2.182,0,5.172,1.8,7.068a8.546,8.546,0,0,0,6.66,2.521c3.271,0,5.731-1.393,6.926-3.918V22906l4.049,0v-22.5l-4.049,0v12.641c0,2.838-.721,4.842-2.142,5.957a5.8,5.8,0,0,1-3.663,1.064,5.355,5.355,0,0,1-4.09-1.3c-1.313-1.268-1.312-2.977-1.312-4.955V22883.5l-4.182,0Zm-13.863-.539a10.778,10.778,0,0,0-8.159,3.295,13.763,13.763,0,0,0,0,17.156,10.921,10.921,0,0,0,8.159,3.129c5.239,0,9.144-2.916,9.947-7.43l-3.824-.4a6.113,6.113,0,0,1-2.082,3.51,6.553,6.553,0,0,1-4.041,1.082c-2.572,0-4.335-.775-5.391-2.369-.894-1.35-1.31-3.312-1.31-6.18,0-3.014.472-5.059,1.484-6.436,1.09-1.426,2.8-2.117,5.215-2.117h0c4.2,0,5.452,2.764,6.077,5.174l3.783-.717a9.633,9.633,0,0,0-3.124-5.451A10.1,10.1,0,0,0,13128.649,22882.963Zm-25.063,0a11.457,11.457,0,0,0-4.455.844,9.61,9.61,0,0,0-3.51,2.529,12.3,12.3,0,0,0-2.836,8.369c0,3.631.925,6.508,2.749,8.549,1.9,2.213,4.549,3.287,8.1,3.289,5.763,0,9.326-2.756,10.3-7.967l-3.916-.318a5.677,5.677,0,0,1-1.984,3.8,7,7,0,0,1-4.451,1.24,5.906,5.906,0,0,1-4.747-1.812c-1.061-1.219-1.6-3.025-1.641-5.523l17.057,0a15.136,15.136,0,0,0-1.895-8.551A10.163,10.163,0,0,0,13103.586,22882.963Zm-29.158,15.295-3.69.363a7.145,7.145,0,0,0,1.991,5.307c1.671,1.686,4.353,2.615,7.551,2.615a12.486,12.486,0,0,0,6.341-1.475,6.137,6.137,0,0,0,2.93-5.592,6.007,6.007,0,0,0-.739-3.086,5.375,5.375,0,0,0-1.951-1.914,19.774,19.774,0,0,0-5.942-1.871l-.268-.057-.237-.051h-.008c-2.651-.574-5.393-1.168-5.393-3.24,0-2.035,2.264-3.1,4.5-3.1a6.3,6.3,0,0,1,4.137,1.219,4.574,4.574,0,0,1,1.536,3.551l3.777-.59a7.37,7.37,0,0,0-3.1-5.746,11.021,11.021,0,0,0-6.306-1.629,10.318,10.318,0,0,0-5.663,1.527,5.812,5.812,0,0,0-2.661,5.039,5.168,5.168,0,0,0,2.255,4.557,15.786,15.786,0,0,0,4.988,1.924c.56.146,1.163.277,1.746.4l.058.014h.007c2.672.584,5.434,1.188,5.434,3.273a3.062,3.062,0,0,1-1.383,2.717,7.568,7.568,0,0,1-4.151.93,6.091,6.091,0,0,1-4.459-1.6A4.745,4.745,0,0,1,13074.428,22898.258Zm-123.167,0-3.691.363a7.168,7.168,0,0,0,2,5.311c1.672,1.684,4.352,2.611,7.546,2.611a12.486,12.486,0,0,0,6.341-1.475,6.139,6.139,0,0,0,2.93-5.592,6,6,0,0,0-.739-3.086,5.371,5.371,0,0,0-1.952-1.914,19.759,19.759,0,0,0-5.941-1.871l-.237-.051-.268-.057h-.008c-2.648-.574-5.388-1.168-5.388-3.24,0-2.035,2.264-3.1,4.5-3.1,3.568,0,5.581,1.693,5.667,4.77l3.783-.59a7.374,7.374,0,0,0-3.1-5.746,11.034,11.034,0,0,0-6.308-1.629,10.31,10.31,0,0,0-5.662,1.527,5.807,5.807,0,0,0-2.661,5.039,5.168,5.168,0,0,0,2.255,4.557,15.9,15.9,0,0,0,4.988,1.924c.528.139,1.1.264,1.651.385l.155.035c2.677.582,5.443,1.184,5.443,3.271a3.062,3.062,0,0,1-1.386,2.717,7.584,7.584,0,0,1-4.154.93,6.086,6.086,0,0,1-4.453-1.592A4.763,4.763,0,0,1,12951.261,22898.258Zm-33.028-15.295a11.457,11.457,0,0,0-4.455.844,9.617,9.617,0,0,0-3.511,2.529,12.3,12.3,0,0,0-2.836,8.369c0,3.637.925,6.514,2.749,8.549,1.9,2.213,4.549,3.287,8.1,3.289,5.764,0,9.327-2.756,10.3-7.967l-3.916-.318a5.677,5.677,0,0,1-1.984,3.8,7,7,0,0,1-4.45,1.24,5.91,5.91,0,0,1-4.748-1.812c-1.06-1.219-1.6-3.025-1.641-5.523l17.052,0a15.08,15.08,0,0,0-1.89-8.551A10.16,10.16,0,0,0,12918.232,22882.963Zm-51.432,0a10.892,10.892,0,0,0-8.243,3.328,10.778,10.778,0,0,0-2.232,3.732,14.028,14.028,0,0,0-.777,4.729,12.235,12.235,0,0,0,2.992,8.646,11.061,11.061,0,0,0,8.261,3.145,10.885,10.885,0,0,0,8.13-3.246,12.121,12.121,0,0,0,3.07-8.545,13.878,13.878,0,0,0-.783-4.711,10.913,10.913,0,0,0-2.237-3.734A10.8,10.8,0,0,0,12866.8,22882.963Zm-35.148,0a11.462,11.462,0,0,0-4.456.844,9.61,9.61,0,0,0-3.51,2.529,12.3,12.3,0,0,0-2.836,8.369c0,3.637.925,6.514,2.749,8.549,1.9,2.213,4.549,3.287,8.1,3.289,5.764,0,9.327-2.756,10.3-7.967l-3.916-.318a5.676,5.676,0,0,1-1.984,3.8,7,7,0,0,1-4.45,1.24,5.91,5.91,0,0,1-4.748-1.812c-1.061-1.219-1.6-3.025-1.641-5.523l17.051,0a15.083,15.083,0,0,0-1.889-8.551A10.163,10.163,0,0,0,12831.652,22882.963Zm-45.673,0a11.462,11.462,0,0,0-4.456.844,9.61,9.61,0,0,0-3.51,2.529,12.3,12.3,0,0,0-2.836,8.369c0,3.635.923,6.512,2.743,8.549,1.9,2.213,4.55,3.287,8.1,3.289,5.76,0,9.321-2.756,10.3-7.967l-3.91-.318a5.686,5.686,0,0,1-1.987,3.8,6.985,6.985,0,0,1-4.447,1.24,5.91,5.91,0,0,1-4.75-1.812c-1.059-1.217-1.595-3.023-1.639-5.523l17.051,0a15.141,15.141,0,0,0-1.889-8.551A10.175,10.175,0,0,0,12785.979,22882.963Zm-26.732,0a9.482,9.482,0,0,0-7.385,3.227,12.789,12.789,0,0,0-2.828,8.563,12.606,12.606,0,0,0,2.93,8.646,9.313,9.313,0,0,0,3.276,2.332,10.581,10.581,0,0,0,4.145.813,8.011,8.011,0,0,0,7.105-3.826V22906l4.055,0v-31.5l-4.055,0v11.926A8.275,8.275,0,0,0,12759.247,22882.963Zm580.952.539v3.371h3.24v14.088a5,5,0,0,0,1.445,4,6.8,6.8,0,0,0,4.585,1.266,14.244,14.244,0,0,0,2.473-.227l-.093-3.645a13.532,13.532,0,0,1-2.067.225c-1.65,0-2.34-.242-2.34-1.756v-13.949h4.592v-3.373l-4.592,0v-6.258l-4,0v6.254Zm-319.052,0v3.371h3.24v14.088a5,5,0,0,0,1.445,4,6.805,6.805,0,0,0,4.586,1.266,14.109,14.109,0,0,0,2.472-.227l-.087-3.645a13.515,13.515,0,0,1-2.073.227c-1.65,0-2.34-.244-2.34-1.758v-13.949h4.593v-3.373l-4.593,0v-6.258l-4,0v6.254Zm405.811,3.371v.045c-.5.559-1.758,1.955-2.519,2.883l-10.715,13.049V22906l18.588,0v-3.463l-14,0v-.047c1.371-1.553,2.523-2.937,2.836-3.334l10.438-12.869v-2.789l-17.144,0v3.463l8.728,0c.952,0,2.778-.059,3.782-.094Zm-21.464-3.371v22.5l4.049,0v-22.5l-4.049,0Zm-9.993-9v31.5l4.049,0v-31.5l-4.049,0Zm-39.51,9v22.5l4.049,0v-10.666c0-3.387.683-5.68,2.088-7.012,1.152-1.094,2.786-1.582,5.295-1.582a6.664,6.664,0,0,1,1.033.047l.093-3.824-.145,0a13.765,13.765,0,0,0-1.386.043,9.537,9.537,0,0,0-4.637,1.516,5.588,5.588,0,0,0-2.342,2.938v-3.961l-4.049,0Zm-28.847,2.836a5.159,5.159,0,0,1,4.009,1.3c1.35,1.266,1.348,3.006,1.346,5.021V22906l4.188,0v-13.363c0-2.221,0-5.264-1.757-7.156-1.626-1.719-3.757-2.518-6.706-2.518a8.555,8.555,0,0,0-4.391,1.033,6.28,6.28,0,0,0-2.535,2.922v-3.418l-4.055,0v22.5l4.055,0v-12.422c0-2.8.734-4.834,2.182-6.033A5.717,5.717,0,0,1,13327.145,22886.338Zm-159.251-2.836v22.5l4.049,0v-10.666c0-3.387.683-5.68,2.088-7.012,1.152-1.094,2.785-1.582,5.294-1.582a6.678,6.678,0,0,1,1.034.047l.087-3.824-.144,0a13.723,13.723,0,0,0-1.382.043,9.536,9.536,0,0,0-4.636,1.516,5.588,5.588,0,0,0-2.342,2.938v-3.961l-4.049,0Zm-121.053,2.836a5.1,5.1,0,0,1,4.009,1.3c1.348,1.264,1.347,2.965,1.346,4.932V22906l4.188,0v-13.455c0-2.184,0-5.174-1.756-7.064-1.626-1.719-3.757-2.518-6.706-2.518-3.337,0-5.731,1.352-6.926,3.91V22874.5l-4.055,0v31.5l4.055,0v-12.646c0-2.834.729-4.838,2.164-5.953A5.861,5.861,0,0,1,13046.841,22886.338Zm-33.705-2.836v22.5l4.05,0v-22.5l-4.05,0Zm-19.437,5h0c.448,2.236,1.033,5.035,1.258,5.891l3.016,11.605,4.366,0,7.516-22.5-4.367,0-3.6,12.012c-.535,1.775-1.107,3.93-1.8,6.619-.474-2.189-1.114-5.086-1.485-6.619l-2.969-12.014-3.783,0-3.016,12.012c-.256,1.039-1.025,4.381-1.524,6.619-.708-2.7-1.659-6.133-1.8-6.619L12982,22883.5l-4.361,0,7.516,22.5,4.407,0,2.923-11.607C12992.852,22892.867,12993.326,22890.443,12993.7,22888.5Zm-60.211-5v22.5l4.049,0v-10.666c0-3.387.683-5.68,2.088-7.012,1.152-1.094,2.786-1.582,5.295-1.582a6.664,6.664,0,0,1,1.033.047l.093-3.824-.145,0a13.8,13.8,0,0,0-1.387.043,9.536,9.536,0,0,0-4.636,1.516,5.588,5.588,0,0,0-2.342,2.938v-3.961l-4.049,0Zm-86.58-9v31.5l4.049,0v-31.5Zm-48.733,9,8.415,22.5,4.32,0,8.41-22.5-4.228,0-4.05,11.654c-.792,2.268-1.687,5.145-2.293,7.109-1.215-4.051-1.98-6.32-2.253-7.109l-4-11.656Zm607.32-9v4.77l4.049,0v-4.773l-4.049,0Zm-392.358,0v4.77l4.05,0v-4.773l-4.05,0Zm561.851-15.152-3.87.271a7.028,7.028,0,0,0,3.207,5.926,11.734,11.734,0,0,0,6.376,1.678c6.663,0,10.8-3.725,10.8-9.719V22835.5l-4.05,0v3.152a8.056,8.056,0,0,0-7.249-3.689,10.4,10.4,0,0,0-4.133.814,9.188,9.188,0,0,0-3.211,2.289,11.774,11.774,0,0,0-2.822,8.1,12.527,12.527,0,0,0,2.824,8.463,9.667,9.667,0,0,0,7.48,3.193,7.869,7.869,0,0,0,7.11-3.871v3.83a6.256,6.256,0,0,1-1.783,4.682,6.4,6.4,0,0,1-4.519,1.617,7.744,7.744,0,0,1-4.364-.965A4.427,4.427,0,0,1,13574.986,22859.35Zm-163.081-23.85v31.5l4.05,0v-11.93a8.279,8.279,0,0,0,7.243,3.469c6.111,0,10.218-4.74,10.218-11.793a12.609,12.609,0,0,0-2.932-8.646,9.35,9.35,0,0,0-3.276-2.334,10.561,10.561,0,0,0-4.143-.807,8.006,8.006,0,0,0-7.11,3.822v-3.287l-4.05,0Zm-19.032,17.641V22858l2.113,0c-.049,2.609-1.206,3.328-2.073,3.643v2.252c2.859-.541,4.5-2.656,4.5-5.8v-4.951l-4.54,0Zm126.09-18.178c-6.112,0-10.219,4.736-10.219,11.787a12.609,12.609,0,0,0,2.932,8.646,9.322,9.322,0,0,0,3.277,2.334,10.578,10.578,0,0,0,4.143.813,8.017,8.017,0,0,0,7.11-3.826V22858l4.049,0v-31.5l-4.049,0v11.926A8.281,8.281,0,0,0,13518.963,22834.963Zm-56.03,0a10.878,10.878,0,0,0-8.237,3.328,10.749,10.749,0,0,0-2.231,3.732,14.008,14.008,0,0,0-.777,4.727,12.235,12.235,0,0,0,2.992,8.646,11.045,11.045,0,0,0,8.254,3.146,10.891,10.891,0,0,0,8.135-3.248,12.117,12.117,0,0,0,3.071-8.545,13.883,13.883,0,0,0-.782-4.709,10.51,10.51,0,0,0-10.424-7.078Zm-85.039,3.193c1.909,0,3.436.555,4.085,1.484s.769,2.008.769,4.1l-7.429,1.436a13.578,13.578,0,0,0-5.155,1.875,5.7,5.7,0,0,0-2.492,5.012,5.889,5.889,0,0,0,2.362,4.9,8.668,8.668,0,0,0,5.2,1.588,10.311,10.311,0,0,0,4.738-.975,6.328,6.328,0,0,0,2.816-2.9,3.836,3.836,0,0,0,1.184,2.635,4.278,4.278,0,0,0,2.871.877,15.108,15.108,0,0,0,2.519-.184l-.092-3.328a5.631,5.631,0,0,1-1.306.182c-1.306,0-1.306-.537-1.306-1.713v-10.754a7,7,0,0,0-2.147-5.553c-1.427-1.24-3.58-1.869-6.4-1.869a12.545,12.545,0,0,0-6.885,1.662c-1.76,1.176-2.7,3.143-2.79,5.852l3.962.537c0-3.449,1.59-4.855,5.488-4.855Zm-37.847,0c1.909,0,3.437.555,4.086,1.484s.769,2.008.769,4.1l-7.429,1.436a13.578,13.578,0,0,0-5.155,1.875,5.7,5.7,0,0,0-2.492,5.012,5.893,5.893,0,0,0,2.364,4.9,8.663,8.663,0,0,0,5.2,1.588,10.335,10.335,0,0,0,4.741-.975,6.355,6.355,0,0,0,2.82-2.9,3.843,3.843,0,0,0,1.181,2.635,4.266,4.266,0,0,0,2.868.877,15.108,15.108,0,0,0,2.519-.184l-.093-3.328a5.6,5.6,0,0,1-1.3.182c-1.306,0-1.306-.537-1.306-1.713v-10.754a7,7,0,0,0-2.15-5.553c-1.429-1.24-3.583-1.869-6.4-1.869a12.546,12.546,0,0,0-6.886,1.662c-1.759,1.178-2.7,3.146-2.79,5.852l3.963.537a4.651,4.651,0,0,1,1.277-3.711c.877-.781,2.215-1.145,4.21-1.145Zm-26.286-3.193c-6.111,0-10.218,4.736-10.218,11.787a12.609,12.609,0,0,0,2.932,8.646,9.281,9.281,0,0,0,3.277,2.334,10.493,10.493,0,0,0,4.142.813,8.019,8.019,0,0,0,7.111-3.826V22858l4.049,0v-31.5l-4.049,0v11.926A8.283,8.283,0,0,0,13313.761,22834.963Zm-49.548,0a10.881,10.881,0,0,0-8.238,3.328,10.766,10.766,0,0,0-2.232,3.732,14.04,14.04,0,0,0-.776,4.727,12.235,12.235,0,0,0,2.992,8.646,11.046,11.046,0,0,0,8.255,3.146,10.867,10.867,0,0,0,8.134-3.248,12.117,12.117,0,0,0,3.071-8.545,13.883,13.883,0,0,0-.782-4.709,10.927,10.927,0,0,0-2.238-3.734A10.81,10.81,0,0,0,13264.213,22834.963Zm-83.417,3.193c1.91,0,3.437.555,4.086,1.484s.762,1.961.762,4.1l-7.422,1.436a13.6,13.6,0,0,0-5.161,1.875,5.7,5.7,0,0,0-2.493,5.012,5.893,5.893,0,0,0,2.364,4.9,8.655,8.655,0,0,0,5.2,1.588,10.341,10.341,0,0,0,4.743-.975,6.327,6.327,0,0,0,2.818-2.9c.224,2.33,1.585,3.512,4.049,3.512a15.124,15.124,0,0,0,2.519-.184l-.087-3.328a5.618,5.618,0,0,1-1.306.182c-1.3,0-1.3-.537-1.3-1.713v-10.754a7,7,0,0,0-2.15-5.553c-1.428-1.24-3.58-1.869-6.4-1.869a12.519,12.519,0,0,0-6.886,1.662c-1.765,1.178-2.7,3.146-2.79,5.852l3.957.537c0-3.449,1.592-4.855,5.493-4.855Zm-48.294-3.193a10.781,10.781,0,0,0-8.161,3.293,13.773,13.773,0,0,0,0,17.158,10.92,10.92,0,0,0,8.161,3.129c5.236,0,9.139-2.916,9.941-7.426l-3.824-.406a6.113,6.113,0,0,1-2.081,3.508,6.558,6.558,0,0,1-4.036,1.082c-2.573,0-4.338-.775-5.4-2.371-.895-1.348-1.311-3.311-1.311-6.18,0-3.012.472-5.057,1.484-6.434,1.09-1.424,2.8-2.115,5.222-2.115a5.635,5.635,0,0,1,4.3,1.609,7.759,7.759,0,0,1,1.768,3.566l3.783-.721a9.644,9.644,0,0,0-3.123-5.451A10.082,10.082,0,0,0,13132.5,22834.963Zm-45.228,0a10.782,10.782,0,0,0-8.162,3.293,13.773,13.773,0,0,0,0,17.158,10.93,10.93,0,0,0,8.162,3.129c5.239,0,9.144-2.916,9.946-7.426l-3.823-.406a6.113,6.113,0,0,1-2.082,3.508,6.553,6.553,0,0,1-4.041,1.082c-2.574,0-4.339-.775-5.4-2.371-.895-1.348-1.311-3.311-1.311-6.18,0-3.006.472-5.051,1.484-6.434,1.094-1.424,2.8-2.115,5.222-2.115,4.2,0,5.452,2.766,6.076,5.176l3.778-.721a9.61,9.61,0,0,0-3.119-5.451A10.086,10.086,0,0,0,13087.274,22834.963Zm-25.606,0a10.88,10.88,0,0,0-8.237,3.328,10.752,10.752,0,0,0-2.231,3.732,14,14,0,0,0-.777,4.727,12.239,12.239,0,0,0,2.991,8.646,11.05,11.05,0,0,0,8.255,3.146,10.871,10.871,0,0,0,8.135-3.248,12.117,12.117,0,0,0,3.071-8.545,13.883,13.883,0,0,0-.782-4.709,10.51,10.51,0,0,0-10.424-7.078Zm-41.981,19.754,0,0a8.013,8.013,0,0,0,7.108,3.822,10.493,10.493,0,0,0,4.142-.812,9.306,9.306,0,0,0,3.275-2.334,12.611,12.611,0,0,0,2.929-8.646c0-7.078-4.1-11.832-10.213-11.832a8.3,8.3,0,0,0-7.243,3.51V22826.5l-4.05,0v31.5l4.05,0v-3.283Zm-29.384-19.754a11.426,11.426,0,0,0-4.455.844,9.6,9.6,0,0,0-3.511,2.527,12.286,12.286,0,0,0-2.836,8.371c0,3.633.923,6.51,2.743,8.549,1.9,2.213,4.551,3.289,8.1,3.289,5.765,0,9.328-2.756,10.3-7.969l-3.91-.316a5.69,5.69,0,0,1-1.986,3.8,7,7,0,0,1-4.448,1.24,5.926,5.926,0,0,1-4.751-1.814c-1.059-1.217-1.6-3.023-1.644-5.523l17.058,0a15.187,15.187,0,0,0-1.89-8.551A10.178,10.178,0,0,0,12990.3,22834.963Zm-78.211,15.295-3.69.363a7.145,7.145,0,0,0,1.991,5.307c1.671,1.686,4.351,2.615,7.545,2.615a12.5,12.5,0,0,0,6.341-1.477,6.135,6.135,0,0,0,2.93-5.59,6,6,0,0,0-.739-3.086,5.379,5.379,0,0,0-1.952-1.914,19.85,19.85,0,0,0-5.93-1.873l-.017,0-.242-.051-.252-.053-.024,0a18.423,18.423,0,0,1-3.691-1.059,2.413,2.413,0,0,1-1.685-2.178c0-2.035,2.264-3.1,4.5-3.1a6.3,6.3,0,0,1,4.137,1.219,4.574,4.574,0,0,1,1.536,3.551l3.777-.59a7.39,7.39,0,0,0-3.1-5.748,11.025,11.025,0,0,0-6.3-1.627,10.314,10.314,0,0,0-5.668,1.527,5.806,5.806,0,0,0-2.662,5.039,5.165,5.165,0,0,0,2.259,4.557,15.59,15.59,0,0,0,4.991,1.924c.563.146,1.173.281,1.8.418,2.676.582,5.443,1.184,5.443,3.273a3.061,3.061,0,0,1-1.383,2.715,7.567,7.567,0,0,1-4.151.932,6.082,6.082,0,0,1-4.459-1.6A4.739,4.739,0,0,1,12912.092,22850.258Zm-37.574-15.295a10.253,10.253,0,0,0-7.966,3.371,12.286,12.286,0,0,0-2.836,8.371c0,3.635.923,6.51,2.744,8.549,1.9,2.213,4.549,3.289,8.1,3.289,5.765,0,9.328-2.756,10.3-7.969l-3.91-.316a5.689,5.689,0,0,1-1.986,3.8,7.008,7.008,0,0,1-4.448,1.238,5.919,5.919,0,0,1-4.751-1.812c-1.059-1.217-1.6-3.023-1.644-5.523l17.058,0a15.191,15.191,0,0,0-1.889-8.551A10.181,10.181,0,0,0,12874.518,22834.963Zm-39.726,3.193c1.906,0,3.431.555,4.08,1.484s.769,2.008.769,4.1l-7.429,1.436a13.578,13.578,0,0,0-5.155,1.875,5.7,5.7,0,0,0-2.492,5.012,5.889,5.889,0,0,0,2.362,4.9,8.668,8.668,0,0,0,5.2,1.588,10.337,10.337,0,0,0,4.742-.975,6.327,6.327,0,0,0,2.818-2.9,3.843,3.843,0,0,0,1.181,2.635,4.27,4.27,0,0,0,2.869.877,15.1,15.1,0,0,0,2.518-.184l-.086-3.328a5.7,5.7,0,0,1-1.306.182c-1.306,0-1.306-.537-1.306-1.713v-10.754a7,7,0,0,0-2.15-5.553c-1.429-1.24-3.583-1.869-6.4-1.869a12.505,12.505,0,0,0-6.879,1.662c-1.766,1.178-2.7,3.146-2.79,5.852l3.956.537c0-3.449,1.592-4.855,5.493-4.855Zm518.254-2.656v3.377l3.24,0v14.082a5,5,0,0,0,1.445,4,6.8,6.8,0,0,0,4.585,1.266,14.109,14.109,0,0,0,2.472-.227l-.086-3.641a14.25,14.25,0,0,1-2.074.223c-1.649,0-2.339-.244-2.339-1.758v-13.945l4.592,0v-3.381l-4.592,0v-6.258l-4,0v6.258Zm-413.193,0v3.377l3.24,0v14.082c0,3.639,1.86,5.264,6.031,5.264a14.257,14.257,0,0,0,2.478-.227l-.093-3.641a14.2,14.2,0,0,1-2.067.223c-1.65,0-2.34-.244-2.34-1.758v-13.945l4.587,0v-3.381l-4.587,0v-6.258l-4.009,0v6.258Zm616.234,2.836a5.1,5.1,0,0,1,4,1.3c1.354,1.264,1.353,3.006,1.352,5.023V22858l4.182,0v-13.363c0-2.225,0-5.271-1.75-7.156-1.629-1.719-3.76-2.518-6.706-2.518a8.565,8.565,0,0,0-4.395,1.031,6.277,6.277,0,0,0-2.537,2.924v-3.42l-4.05,0v22.5l4.05,0v-12.422c0-2.807.734-4.836,2.183-6.035A5.728,5.728,0,0,1,13556.087,22838.336Zm-19.894-2.836v22.5l4.049,0v-22.5Zm-36.137,0v22.5l4.055,0v-22.5Zm-24.433,0,8.415,22.5,4.321,0,8.416-22.5-4.229,0-4.055,11.654c-.623,1.8-1.4,4.191-2.294,7.111-1.251-4.176-1.987-6.363-2.246-7.111l-4.009-11.656Zm-37.575,0v22.5l4.049,0v-10.666c0-3.389.683-5.682,2.088-7.014,1.152-1.094,2.785-1.58,5.294-1.58a6.678,6.678,0,0,1,1.034.047l.093-3.826-.142,0c-.385,0-1.077.006-1.39.045a9.526,9.526,0,0,0-4.634,1.516,5.611,5.611,0,0,0-2.344,2.938v-3.963l-4.049,0Zm-158.038,0v22.5l4.049,0v-10.666c0-3.389.683-5.682,2.088-7.014,1.152-1.094,2.785-1.58,5.294-1.58a6.678,6.678,0,0,1,1.034.047l.093-3.826-.142,0c-.385,0-1.077.006-1.39.045a9.536,9.536,0,0,0-4.636,1.516,5.588,5.588,0,0,0-2.342,2.938v-3.963l-4.049,0Zm-40.544,0v3.377l3.24,0V22858l4,0v-19.123l4.593,0v-3.381l-4.593,0v-3.871c0-1.492.725-1.756,2.247-1.756a14.27,14.27,0,0,1,2.16.225l.093-3.6a15.648,15.648,0,0,0-2.472-.225c-4.171,0-6.031,1.623-6.031,5.266v3.957Zm-23.538,2.836a5.115,5.115,0,0,1,4.009,1.3c1.348,1.262,1.347,3.006,1.346,5.023V22858l4.188,0v-13.363c0-2.223,0-5.266-1.756-7.156-1.629-1.719-3.76-2.518-6.706-2.518a8.573,8.573,0,0,0-4.393,1.031,6.276,6.276,0,0,0-2.539,2.924v-3.42l-4.049,0v22.5l4.049,0v-12.422c0-2.807.734-4.836,2.183-6.035A5.728,5.728,0,0,1,13215.929,22838.336Zm-19.888-2.836v22.5l4.049,0v-22.5Zm-39.556,2.836a5.1,5.1,0,0,1,4,1.3c1.355,1.266,1.354,2.967,1.352,4.938V22858l4.188,0v-13.455c0-2.184,0-5.174-1.756-7.064-1.629-1.719-3.76-2.518-6.706-2.518-3.341,0-5.737,1.354-6.932,3.914V22826.5l-4.049,0v31.5l4.049,0v-12.646c0-2.834.729-4.838,2.165-5.955A5.872,5.872,0,0,1,13156.485,22838.336Zm-47.926,8.1v0l7.428,11.563,4.719,0-9.312-14.264,8.907-8.238-5.487,0-9.4,9.316V22826.5l-4.05,0v31.5l4.05,0v-8.6l3.146-2.967Zm-66.779-19.932v31.5l4.05,0v-31.5l-4.05,0Zm-76.229,11.834a5.1,5.1,0,0,1,4,1.3c1.354,1.264,1.354,2.965,1.353,4.932V22858l4.182,0v-13.455c0-2.186,0-5.18-1.75-7.064-1.629-1.719-3.76-2.518-6.706-2.518-3.342,0-5.739,1.354-6.932,3.914V22826.5l-4.05,0v31.5l4.05,0v-12.646c0-2.834.729-4.838,2.165-5.955A5.868,5.868,0,0,1,12965.551,22838.336Zm-65.7-2.836v22.5l4.049,0v-22.5Zm-49.814,0v22.5l4.049,0v-10.666c0-3.389.682-5.682,2.085-7.014,1.15-1.094,2.782-1.58,5.291-1.58a6.62,6.62,0,0,1,1.034.047l.093-3.826-.141,0c-.383,0-1.072.006-1.391.045a9.518,9.518,0,0,0-4.633,1.516,5.586,5.586,0,0,0-2.339,2.938v-3.963l-4.049,0Zm-34.294-9v31.5l4.049,0v-31.5l-4.049,0Zm-24.479,0v31.5l4.049,0v-14.086l14.626,0v-3.646l-14.626,0v-10.127l16.295,0v-3.646Zm744.929,0v4.768h4.049v-4.77Zm-36.137,0v4.768h4.055v-4.77Zm-304.016,0v4.768h4.049v-4.77Zm-296.188,0v4.768h4.049v-4.77Zm192.6,172.848c-2.51,0-4.238-.762-5.283-2.326-.908-1.361-1.331-3.354-1.331-6.271,0-3.135.558-5.252,1.756-6.664a6.171,6.171,0,0,1,4.95-1.889,6.769,6.769,0,0,1,3.321.754,5.092,5.092,0,0,1,1.954,1.975,11.94,11.94,0,0,1,1.159,5.865c0,3.2-.711,5.527-2.113,6.932A5.912,5.912,0,0,1,13092.45,22999.35Zm-52.2-.049a4.737,4.737,0,0,1-2.853-.852,2.942,2.942,0,0,1-1.2-2.434c0-2.625,1.876-3.266,4.142-3.785l6.793-1.48v2.746a5.485,5.485,0,0,1-1.6,4.117A7.458,7.458,0,0,1,13040.25,22999.3Zm282.689-10.619h-12.869a8.09,8.09,0,0,1,1.08-4.006c.938-1.545,2.873-2.43,5.309-2.43,2.49,0,4.115.748,5.268,2.43a8.773,8.773,0,0,1,1.213,4Zm-65.791,0h-12.87a8.09,8.09,0,0,1,1.08-4.006c.938-1.545,2.873-2.43,5.309-2.43,2.491,0,4.116.748,5.268,2.43a8.648,8.648,0,0,1,1.214,4Zm-83.248,0h-12.869a8.053,8.053,0,0,1,1.08-4.006c.938-1.545,2.873-2.43,5.309-2.43,2.491,0,4.114.748,5.262,2.43a8.708,8.708,0,0,1,1.219,4Zm170.458-37.332a6.45,6.45,0,0,1-4.9-1.713c-1.333-1.377-1.981-3.629-1.981-6.885s.648-5.508,1.981-6.885a6.519,6.519,0,0,1,4.9-1.709,6.353,6.353,0,0,1,4.95,1.842c1.274,1.4,1.895,3.607,1.895,6.752,0,3.1-.6,5.287-1.849,6.7A6.275,6.275,0,0,1,13344.358,22951.35Zm-74.832,0a6.453,6.453,0,0,1-4.9-1.713c-1.333-1.369-1.98-3.623-1.98-6.885s.647-5.514,1.98-6.885a6.522,6.522,0,0,1,4.9-1.709,6.353,6.353,0,0,1,4.95,1.842c1.271,1.4,1.889,3.609,1.889,6.752,0,3.094-.6,5.285-1.848,6.7A6.332,6.332,0,0,1,13269.526,22951.35Zm-126.99,0c-2.51,0-4.238-.762-5.283-2.328-.908-1.359-1.331-3.352-1.331-6.27,0-3.137.556-5.252,1.75-6.66a6.181,6.181,0,0,1,4.95-1.893c5.768,0,6.435,4.9,6.435,8.594,0,3.2-.711,5.533-2.113,6.932A5.9,5.9,0,0,1,13142.536,22951.35Zm-309.914,0a6.457,6.457,0,0,1-4.909-1.713c-1.329-1.373-1.976-3.625-1.976-6.885s.646-5.512,1.976-6.885a6.527,6.527,0,0,1,4.909-1.709,6.353,6.353,0,0,1,4.95,1.842c1.271,1.4,1.889,3.611,1.889,6.752,0,3.1-.6,5.287-1.848,6.7A6.349,6.349,0,0,1,12832.622,22951.35Zm671.756-.049a4.733,4.733,0,0,1-2.851-.852,2.943,2.943,0,0,1-1.2-2.436c0-2.631,1.876-3.266,4.142-3.775l6.793-1.488v2.746a5.488,5.488,0,0,1-1.6,4.117A7.459,7.459,0,0,1,13504.378,22951.3Zm-300.6,0a4.73,4.73,0,0,1-2.852-.852,2.943,2.943,0,0,1-1.2-2.436c0-2.631,1.873-3.266,4.136-3.775l6.8-1.488v2.746a5.485,5.485,0,0,1-1.6,4.117A7.461,7.461,0,0,1,13203.781,22951.3Zm-37.846,0a4.733,4.733,0,0,1-2.853-.852,2.943,2.943,0,0,1-1.2-2.436c0-2.631,1.876-3.266,4.142-3.775l6.793-1.488v2.746a5.485,5.485,0,0,1-1.6,4.117A7.458,7.458,0,0,1,13165.936,22951.3Zm-120.424-.721c-2.476,0-4.176-.73-5.2-2.234-.9-1.324-1.322-3.289-1.322-6.184,0-2.924.543-4.867,1.71-6.115,1.059-1.244,2.662-1.848,4.9-1.848,4.3,0,6.567,2.752,6.567,7.963,0,2.814-.718,5.148-2.021,6.574A6.029,6.029,0,0,1,13045.512,22950.58Zm-142.24,0c-2.479,0-4.181-.73-5.205-2.234-.9-1.324-1.322-3.289-1.322-6.184,0-2.924.544-4.867,1.71-6.115,1.06-1.244,2.663-1.848,4.9-1.848,4.3,0,6.573,2.752,6.573,7.963a9.742,9.742,0,0,1-2.027,6.574A6.022,6.022,0,0,1,12903.271,22950.58Zm511.47-9.9h-12.869a8.047,8.047,0,0,1,1.08-4c.932-1.545,2.866-2.43,5.309-2.43,2.494,0,4.117.748,5.262,2.43a8.707,8.707,0,0,1,1.219,4Zm-387.586,0h-12.87a8.084,8.084,0,0,1,1.08-4c.938-1.545,2.873-2.43,5.309-2.43l.01,0c2.485,0,4.107.75,5.259,2.432a8.789,8.789,0,0,1,1.213,4Zm443.315-37.332c-2.508,0-4.235-.762-5.28-2.326-.909-1.361-1.333-3.354-1.333-6.27,0-3.133.558-5.248,1.756-6.66a6.165,6.165,0,0,1,4.95-1.893c5.768,0,6.435,4.906,6.435,8.6,0,3.193-.712,5.523-2.114,6.926A5.909,5.909,0,0,1,13470.471,22903.348Zm-243,0c-2.511,0-4.24-.762-5.286-2.326-.91-1.361-1.334-3.354-1.334-6.27,0-3.131.559-5.248,1.757-6.66a6.162,6.162,0,0,1,4.95-1.893c5.768,0,6.435,4.906,6.435,8.6,0,3.193-.711,5.523-2.114,6.926A5.9,5.9,0,0,1,13227.476,22903.348Zm-360.675,0a6.465,6.465,0,0,1-4.91-1.711c-1.333-1.377-1.981-3.629-1.981-6.885s.648-5.508,1.981-6.887a6.536,6.536,0,0,1,4.91-1.707,6.329,6.329,0,0,1,4.944,1.842c1.274,1.4,1.895,3.607,1.895,6.752,0,3.1-.6,5.291-1.849,6.705a6.364,6.364,0,0,1-4.99,1.889Zm-106.7,0v0c-2.509,0-4.236-.762-5.281-2.324-.909-1.361-1.333-3.354-1.333-6.27,0-3.133.558-5.248,1.756-6.66a6.165,6.165,0,0,1,4.951-1.893c5.768,0,6.435,4.906,6.435,8.6,0,3.193-.711,5.523-2.114,6.926A5.909,5.909,0,0,1,12760.1,22903.348Zm743.849-.047a4.75,4.75,0,0,1-2.851-.85,2.943,2.943,0,0,1-1.2-2.437c0-2.631,1.875-3.266,4.141-3.775l6.793-1.488v2.746a5.488,5.488,0,0,1-1.6,4.117A7.459,7.459,0,0,1,13503.95,22903.3Zm-125.727,0a4.746,4.746,0,0,1-2.852-.85,2.945,2.945,0,0,1-1.2-2.437c0-2.633,1.873-3.268,4.136-3.775l6.8-1.488v2.746a5.485,5.485,0,0,1-1.6,4.117A7.461,7.461,0,0,1,13378.224,22903.3Zm-485.28,0c-5.768,0-6.435-4.906-6.435-8.6,0-2.852.575-5.031,1.71-6.48a5.738,5.738,0,0,1,4.811-2.066h0c2.513,0,4.241.758,5.285,2.32.911,1.361,1.335,3.355,1.335,6.273,0,3.371-.679,5.666-2.074,7.018A6.477,6.477,0,0,1,12892.943,22903.3Zm692.1-10.621h-12.869a8.084,8.084,0,0,1,1.08-4c.938-1.547,2.872-2.432,5.308-2.432,2.49,0,4.115.75,5.269,2.432a8.765,8.765,0,0,1,1.213,4Zm-133.067,0h-12.87a8.084,8.084,0,0,1,1.08-4c.938-1.547,2.875-2.432,5.314-2.432,2.492,0,4.115.75,5.263,2.432a8.644,8.644,0,0,1,1.213,4Zm-143.459,0h-12.87a8.084,8.084,0,0,1,1.08-4c.938-1.547,2.873-2.432,5.309-2.432,2.49,0,4.115.75,5.269,2.432a8.726,8.726,0,0,1,1.213,4Zm-48.643,0H13247a8.047,8.047,0,0,1,1.08-4c.932-1.547,2.867-2.432,5.309-2.432,2.492,0,4.115.75,5.262,2.432a8.707,8.707,0,0,1,1.219,4Zm-60.974,0h-12.875a8.084,8.084,0,0,1,1.08-4c.937-1.547,2.874-2.432,5.313-2.432,2.492,0,4.115.75,5.263,2.432a8.714,8.714,0,0,1,1.219,4Zm-88.787,0h-12.869a8.084,8.084,0,0,1,1.08-4c.938-1.547,2.873-2.432,5.309-2.432,2.491,0,4.114.75,5.262,2.432a8.707,8.707,0,0,1,1.219,4Zm-185.354,0h-12.87a8.047,8.047,0,0,1,1.08-4c.933-1.547,2.867-2.432,5.309-2.432,2.492,0,4.115.75,5.263,2.432a8.728,8.728,0,0,1,1.219,4Zm-86.581,0h-12.869a8.047,8.047,0,0,1,1.08-4c.932-1.547,2.867-2.432,5.309-2.432,2.492,0,4.115.75,5.262,2.432a8.707,8.707,0,0,1,1.219,4Zm-45.679,0h-12.869a8.084,8.084,0,0,1,1.08-4c.938-1.547,2.875-2.432,5.314-2.432,2.486,0,4.109.75,5.262,2.432a8.616,8.616,0,0,1,1.213,4Zm233.575-37.24a5.757,5.757,0,0,1-4.885-2.2c-1.09-1.451-1.643-3.619-1.643-6.445,0-2.99.516-5.125,1.577-6.527a5.629,5.629,0,0,1,4.863-2.158c2.438,0,4.152.75,5.239,2.293.983,1.4,1.461,3.473,1.461,6.346,0,3.344-.527,5.453-1.71,6.84A6.226,6.226,0,0,1,13026.075,22855.439Zm493.736-.092c-2.508,0-4.235-.762-5.28-2.326-.909-1.363-1.333-3.355-1.333-6.271,0-3.131.558-5.246,1.756-6.66a6.178,6.178,0,0,1,4.95-1.889c5.768,0,6.435,4.906,6.435,8.6,0,3.2-.712,5.529-2.114,6.926A5.909,5.909,0,0,1,13519.812,22855.348Zm-56.879,0a6.443,6.443,0,0,1-4.9-1.711c-1.333-1.377-1.981-3.629-1.981-6.887s.648-5.508,1.981-6.885a6.524,6.524,0,0,1,4.9-1.707,6.362,6.362,0,0,1,4.95,1.84c1.274,1.4,1.895,3.607,1.895,6.752,0,3.1-.6,5.291-1.848,6.707A6.373,6.373,0,0,1,13462.933,22855.348Zm-148.316,0c-2.51,0-4.238-.762-5.283-2.326-.908-1.361-1.331-3.354-1.331-6.271,0-3.135.557-5.25,1.75-6.66a6.2,6.2,0,0,1,4.951-1.889c5.768,0,6.435,4.906,6.435,8.6,0,3.2-.712,5.529-2.114,6.926A5.9,5.9,0,0,1,13314.616,22855.348Zm-50.4,0a6.445,6.445,0,0,1-4.9-1.711c-1.329-1.373-1.976-3.625-1.976-6.887s.646-5.512,1.976-6.885a6.525,6.525,0,0,1,4.9-1.707,6.365,6.365,0,0,1,4.95,1.84c1.274,1.4,1.895,3.607,1.895,6.752,0,3.1-.6,5.293-1.849,6.707A6.372,6.372,0,0,1,13264.213,22855.348Zm-202.545,0a6.452,6.452,0,0,1-4.9-1.711c-1.332-1.377-1.98-3.629-1.98-6.887s.648-5.51,1.98-6.885a6.522,6.522,0,0,1,4.9-1.707,6.362,6.362,0,0,1,4.95,1.84c1.271,1.4,1.889,3.605,1.889,6.752,0,3.1-.6,5.3-1.842,6.707A6.376,6.376,0,0,1,13061.668,22855.348Zm360.589-.047c-5.769,0-6.436-4.906-6.436-8.6,0-2.852.575-5.031,1.71-6.48a5.738,5.738,0,0,1,4.812-2.066c2.513,0,4.241.758,5.286,2.32.91,1.361,1.334,3.354,1.334,6.271,0,3.369-.679,5.666-2.074,7.02A6.462,6.462,0,0,1,13422.257,22855.3Zm-46.4,0v0a4.77,4.77,0,0,1-2.855-.85,2.943,2.943,0,0,1-1.2-2.436c0-2.625,1.876-3.264,4.142-3.779l6.8-1.484v2.744a5.485,5.485,0,0,1-1.6,4.117A7.465,7.465,0,0,1,13375.861,22855.3Zm-37.846,0a4.738,4.738,0,0,1-2.852-.852,2.938,2.938,0,0,1-1.2-2.436c0-2.625,1.876-3.264,4.142-3.779l6.793-1.484v2.744a5.485,5.485,0,0,1-1.6,4.117A7.456,7.456,0,0,1,13338.016,22855.3Zm-159.257,0a4.743,4.743,0,0,1-2.853-.852,2.938,2.938,0,0,1-1.2-2.436c0-2.621,1.876-3.264,4.142-3.779l6.793-1.484v2.744a5.485,5.485,0,0,1-1.6,4.117A7.464,7.464,0,0,1,13178.759,22855.3Zm-346,0a4.738,4.738,0,0,1-2.852-.852,2.938,2.938,0,0,1-1.2-2.436c0-2.625,1.876-3.264,4.142-3.779l6.793-1.484v2.744a5.485,5.485,0,0,1-1.6,4.117A7.465,7.465,0,0,1,12832.755,22855.3Zm748.216-.721c-2.479,0-4.182-.73-5.205-2.234-.9-1.326-1.322-3.291-1.322-6.184,0-2.922.544-4.865,1.71-6.117,1.063-1.24,2.667-1.844,4.9-1.844,4.3,0,6.573,2.754,6.573,7.961a9.726,9.726,0,0,1-2.027,6.572A6,6,0,0,1,13580.971,22854.58Zm-584.146-9.9h-12.87a8.09,8.09,0,0,1,1.08-4.006c.938-1.545,2.872-2.43,5.309-2.43,2.491,0,4.116.748,5.269,2.43a8.734,8.734,0,0,1,1.213,4Zm-115.785,0h-12.87a8.083,8.083,0,0,1,1.081-4.006c.938-1.545,2.872-2.43,5.308-2.43,2.491,0,4.116.748,5.269,2.43a8.773,8.773,0,0,1,1.213,4Z" transform="translate(-12723.001 -22812)" fill="#fff"></path></svg> 