<?xml version="1.0" encoding="UTF-8"?> <svg xmlns="http://www.w3.org/2000/svg" id="Layer_1" viewBox="0 0 83.21 83.21"><defs><style>.cls-1{fill:#010101;}</style></defs><path class="cls-1" d="M41.61,83.21c-10.66,0-21.32-4.06-29.43-12.17C-4.06,54.81-4.06,28.4,12.17,12.17c16.23-16.23,42.64-16.23,58.87,0,16.23,16.23,16.23,42.64,0,58.87-8.11,8.11-18.77,12.17-29.43,12.17ZM41.61,1.5c-10.28,0-20.55,3.91-28.37,11.73-15.65,15.65-15.65,41.1,0,56.75,15.65,15.65,41.1,15.65,56.75,0,15.65-15.65,15.65-41.1,0-56.75C62.16,5.41,51.88,1.5,41.61,1.5Z"></path><path class="cls-1" d="M41.61,4.76c-.26,0-.52-.11-.71-.29-.19-.19-.29-.44-.29-.71s.11-.52,.29-.71c.38-.37,1.04-.37,1.42,0,.19,.19,.29,.44,.29,.71s-.11,.52-.29,.71c-.19,.19-.44,.29-.71,.29Z"></path><path class="cls-1" d="M40.61,21.93c0-.55,.45-1,1-1h0c.55,0,1,.45,1,1h0c0,.55-.45,1-1,1h0c-.55,0-1-.45-1-1Zm0-6.06c0-.55,.45-1,1-1h0c.55,0,1,.45,1,1h0c0,.55-.45,1-1,1h0c-.55,0-1-.45-1-1Zm0-6.06c0-.55,.45-1,1-1h0c.55,0,1,.45,1,1h0c0,.55-.45,1-1,1h0c-.55,0-1-.45-1-1Z"></path><path class="cls-1" d="M41.61,28.99c-.26,0-.52-.11-.71-.29-.19-.19-.29-.44-.29-.71s.11-.52,.29-.71c.37-.37,1.04-.37,1.42,0,.19,.19,.29,.44,.29,.71,0,.06,0,.13-.02,.19-.01,.06-.03,.13-.06,.19-.03,.06-.06,.12-.09,.17-.04,.06-.08,.11-.12,.15-.19,.19-.44,.29-.71,.29Z"></path><path class="cls-1" d="M41.61,56.22c-.26,0-.52-.11-.71-.29-.19-.19-.29-.44-.29-.71s.11-.52,.29-.71c.37-.37,1.04-.37,1.42,0,.05,.05,.09,.1,.12,.15,.04,.05,.07,.11,.09,.17,.03,.06,.04,.12,.06,.19,.01,.06,.02,.13,.02,.2s0,.13-.02,.2c-.01,.06-.03,.13-.06,.19-.03,.06-.06,.12-.09,.17-.04,.05-.08,.11-.12,.15-.19,.19-.44,.29-.71,.29Z"></path><path class="cls-1" d="M40.61,73.4c0-.55,.45-1,1-1h0c.55,0,1,.45,1,1h0c0,.55-.45,1-1,1h0c-.55,0-1-.45-1-1Zm0-6.06c0-.55,.45-1,1-1h0c.55,0,1,.45,1,1h0c0,.55-.45,1-1,1h0c-.55,0-1-.45-1-1Zm0-6.06c0-.55,.45-1,1-1h0c.55,0,1,.45,1,1h0c0,.55-.45,1-1,1h0c-.55,0-1-.45-1-1Z"></path><path class="cls-1" d="M41.61,80.46c-.26,0-.52-.11-.71-.29-.19-.19-.29-.44-.29-.71s.11-.52,.29-.71c.37-.37,1.04-.37,1.42,0,.19,.19,.29,.44,.29,.71s-.11,.52-.29,.71c-.19,.19-.45,.29-.71,.29Z"></path><path class="cls-1" d="M40.61,49.78c0-.55,.45-1,1-1h0c.55,0,1,.45,1,1h0c0,.55-.45,1-1,1h0c-.55,0-1-.45-1-1Zm0-5.45c0-.55,.45-1,1-1h0c.55,0,1,.45,1,1h0c0,.55-.45,1-1,1h0c-.55,0-1-.45-1-1Zm0-5.45c0-.55,.45-1,1-1h0c.55,0,1,.45,1,1h0c0,.55-.45,1-1,1h0c-.55,0-1-.45-1-1Zm0-5.45c0-.55,.45-1,1-1h0c.55,0,1,.45,1,1h0c0,.55-.45,1-1,1h0c-.55,0-1-.45-1-1Z"></path><path class="cls-1" d="M33.64,27.99c0-.55,.45-1,1-1h0c.55,0,1,.45,1,1h0c0,.55-.45,1-1,1h0c-.55,0-1-.45-1-1Zm-6.97,0c0-.55,.45-1,1-1h0c.55,0,1,.45,1,1h0c0,.55-.45,1-1,1h0c-.55,0-1-.45-1-1Zm-6.96,0c0-.55,.45-1,1-1h0c.55,0,1,.45,1,1h0c0,.55-.45,1-1,1h0c-.55,0-1-.45-1-1Zm-6.97,0c0-.55,.45-1,1-1h0c.55,0,1,.45,1,1h0c0,.55-.45,1-1,1h0c-.55,0-1-.45-1-1Z"></path><path class="cls-1" d="M6.78,28.99c-.26,0-.52-.11-.71-.29-.19-.19-.29-.44-.29-.71s.11-.52,.29-.71c.37-.37,1.04-.37,1.41,0,.19,.19,.29,.44,.29,.71s-.11,.52-.29,.71c-.19,.19-.44,.29-.71,.29Z"></path><path class="cls-1" d="M33.64,55.22c0-.55,.45-1,1-1h0c.55,0,1,.45,1,1h0c0,.55-.45,1-1,1h0c-.55,0-1-.45-1-1Zm-6.97,0c0-.55,.45-1,1-1h0c.55,0,1,.45,1,1h0c0,.55-.45,1-1,1h0c-.55,0-1-.45-1-1Zm-6.96,0c0-.55,.45-1,1-1h0c.55,0,1,.45,1,1h0c0,.55-.45,1-1,1h0c-.55,0-1-.45-1-1Zm-6.97,0c0-.55,.45-1,1-1h0c.55,0,1,.45,1,1h0c0,.55-.45,1-1,1h0c-.55,0-1-.45-1-1Z"></path><path class="cls-1" d="M6.78,56.22c-.26,0-.52-.11-.71-.29-.19-.19-.29-.44-.29-.71s.11-.52,.29-.71c.37-.37,1.04-.37,1.41,0,.19,.19,.29,.44,.29,.71s-.11,.52-.29,.71-.44,.29-.71,.29Z"></path><path class="cls-1" d="M32.69,78c-.26,0-.52-.11-.71-.29-.19-.19-.29-.44-.29-.71s.11-.52,.29-.71c.37-.37,1.04-.37,1.41,0,.05,.05,.09,.1,.12,.15,.04,.06,.07,.11,.09,.17,.02,.06,.04,.12,.06,.19,.01,.06,.02,.13,.02,.2s0,.13-.02,.2c-.01,.06-.03,.13-.06,.19-.03,.06-.06,.12-.09,.17-.04,.05-.08,.11-.12,.15-.19,.19-.44,.29-.71,.29Z"></path><path class="cls-1" d="M28.13,72.5c-.3-.46-.17-1.08,.3-1.38h0c.46-.3,1.08-.16,1.38,.3h0c.3,.46,.17,1.08-.3,1.38h0c-.17,.11-.35,.16-.54,.16h0c-.33,0-.65-.16-.84-.46Zm-3.26-5.42h0c-.27-.48-.1-1.09,.38-1.36h0c.48-.27,1.09-.1,1.36,.38h0c.27,.48,.1,1.09-.38,1.36h0c-.16,.09-.32,.13-.49,.13h0c-.35,0-.69-.18-.87-.51Zm-2.95-5.61c-.24-.5-.03-1.09,.47-1.33h0c.5-.24,1.1-.03,1.33,.47h0c.24,.5,.03,1.1-.47,1.33h0c-.14,.07-.29,.1-.43,.1h0c-.37,0-.73-.21-.9-.57Z"></path><path class="cls-1" d="M32.69,7.22c-.26,0-.52-.11-.71-.29-.19-.19-.29-.44-.29-.71s.11-.52,.29-.71c.37-.37,1.04-.37,1.41,0,.19,.19,.29,.44,.29,.71,0,.06,0,.13-.02,.19-.01,.06-.03,.13-.06,.19-.03,.06-.06,.12-.09,.17-.04,.06-.08,.11-.12,.15-.19,.19-.44,.29-.71,.29Z"></path><path class="cls-1" d="M22.37,23.07c-.5-.24-.71-.84-.47-1.33h0c.24-.5,.84-.71,1.33-.47h0c.5,.24,.71,.84,.47,1.33h0c-.17,.36-.53,.57-.9,.57h0c-.15,0-.29-.03-.43-.1Zm2.86-5.58c-.48-.27-.65-.88-.38-1.36h0c.27-.48,.88-.65,1.36-.38h0c.48,.27,.65,.88,.38,1.36h0c-.18,.32-.52,.51-.87,.51h0c-.17,0-.34-.04-.49-.13Zm3.19-5.4c-.46-.3-.6-.92-.3-1.38h0c.3-.46,.92-.6,1.38-.3h0c.46,.3,.6,.92,.3,1.38h0c-.19,.3-.51,.46-.84,.46h0c-.19,0-.37-.05-.54-.16Z"></path><path class="cls-1" d="M18.53,48.52c-.03-.55,.39-1.02,.94-1.06h0c.55-.03,1.03,.39,1.06,.94h0c.03,.55-.39,1.03-.94,1.06h0s-.04,0-.06,0h0c-.53,0-.97-.41-1-.94Zm.85-5.9c-.55,0-.99-.46-.99-1.01h0c0-.55,.46-.99,1.01-.99h0c.55,0,.99,.46,.99,1.01h0c0,.55-.45,.99-1,.99h-.01Zm.21-6.84c-.55-.04-.97-.51-.93-1.06h0c.04-.55,.51-.97,1.06-.93h0c.55,.04,.97,.51,.93,1.07h0c-.04,.53-.47,.93-1,.93h0s-.04,0-.07,0Z"></path><path class="cls-1" d="M68.47,27.99c0-.55,.45-1,1-1h0c.55,0,1,.45,1,1h0c0,.55-.45,1-1,1h0c-.55,0-1-.45-1-1Zm-6.96,0c0-.55,.45-1,1-1h0c.55,0,1,.45,1,1h0c0,.55-.45,1-1,1h0c-.55,0-1-.45-1-1Zm-6.96,0c0-.55,.45-1,1-1h0c.55,0,1,.45,1,1h0c0,.55-.45,1-1,1h0c-.55,0-1-.45-1-1Zm-6.97,0c0-.55,.45-1,1-1h0c.55,0,1,.45,1,1h0c0,.55-.45,1-1,1h0c-.55,0-1-.45-1-1Z"></path><path class="cls-1" d="M76.43,28.99c-.26,0-.52-.11-.71-.29-.19-.19-.29-.44-.29-.71s.11-.52,.29-.71c.37-.37,1.04-.37,1.41,0,.19,.19,.29,.44,.29,.71s-.11,.52-.29,.71c-.19,.19-.44,.29-.71,.29Z"></path><path class="cls-1" d="M68.47,55.22c0-.55,.45-1,1-1h0c.55,0,1,.45,1,1h0c0,.55-.45,1-1,1h0c-.55,0-1-.45-1-1Zm-6.96,0c0-.55,.45-1,1-1h0c.55,0,1,.45,1,1h0c0,.55-.45,1-1,1h0c-.55,0-1-.45-1-1Zm-6.96,0c0-.55,.45-1,1-1h0c.55,0,1,.45,1,1h0c0,.55-.45,1-1,1h0c-.55,0-1-.45-1-1Zm-6.97,0c0-.55,.45-1,1-1h0c.55,0,1,.45,1,1h0c0,.55-.45,1-1,1h0c-.55,0-1-.45-1-1Z"></path><path class="cls-1" d="M76.43,56.22c-.26,0-.52-.11-.71-.29-.19-.19-.29-.44-.29-.71s.11-.52,.29-.71c.37-.37,1.04-.37,1.41,0,.19,.19,.29,.44,.29,.71s-.11,.52-.29,.71-.44,.29-.71,.29Z"></path><path class="cls-1" d="M50.52,78c-.26,0-.52-.11-.71-.29-.19-.19-.29-.44-.29-.71s.11-.52,.29-.71c.37-.37,1.04-.37,1.42,0,.05,.05,.09,.1,.12,.15,.04,.06,.07,.11,.09,.17,.02,.06,.04,.12,.06,.19,.01,.06,.02,.13,.02,.2s0,.13-.02,.2c-.01,.06-.03,.13-.06,.19-.03,.06-.06,.12-.09,.17-.04,.05-.08,.11-.12,.15-.19,.19-.44,.29-.71,.29Z"></path><path class="cls-1" d="M53.7,72.8c-.46-.3-.6-.92-.3-1.38h0c.3-.46,.92-.6,1.38-.3h0c.46,.3,.6,.92,.3,1.38h0c-.19,.3-.51,.46-.84,.46h0c-.19,0-.37-.05-.54-.16Zm3.28-5.34c-.48-.27-.65-.88-.38-1.36h0c.27-.48,.88-.65,1.36-.38h0c.48,.27,.65,.88,.38,1.36h0c-.18,.33-.52,.51-.87,.51h0c-.17,0-.33-.04-.49-.13Zm2.97-5.52c-.5-.24-.71-.84-.47-1.33h0c.24-.5,.84-.71,1.33-.47h0c.5,.24,.71,.84,.47,1.33h0c-.17,.36-.53,.57-.9,.57h0c-.15,0-.29-.03-.43-.1Z"></path><path class="cls-1" d="M50.52,7.22c-.26,0-.52-.11-.71-.29-.19-.19-.29-.44-.29-.71s.11-.52,.29-.71c.37-.37,1.04-.37,1.42,0,.19,.19,.29,.44,.29,.71,0,.06,0,.13-.02,.19-.01,.06-.03,.13-.06,.19-.03,.06-.06,.12-.09,.17-.04,.06-.08,.11-.12,.15-.19,.19-.44,.29-.71,.29Z"></path><path class="cls-1" d="M59.51,22.6c-.24-.5-.03-1.1,.47-1.33h0c.5-.24,1.09-.03,1.34,.47h0c.24,.5,.03,1.09-.47,1.33h0c-.14,.07-.29,.1-.43,.1h0c-.37,0-.73-.21-.9-.57Zm-2.89-5.49c-.27-.48-.1-1.09,.38-1.36h0c.48-.27,1.09-.1,1.36,.38h0c.27,.48,.1,1.09-.38,1.36h0c-.16,.09-.32,.13-.49,.13h0c-.35,0-.69-.18-.87-.51Zm-3.21-5.32c-.3-.46-.17-1.08,.3-1.38h0c.46-.3,1.08-.17,1.38,.3h0c.3,.46,.17,1.08-.3,1.38h0c-.17,.11-.36,.16-.54,.16h0c-.33,0-.65-.16-.84-.46Z"></path><path class="cls-1" d="M63.62,49.46c-.55-.03-.97-.51-.94-1.06h0c.03-.55,.51-.97,1.06-.94h0c.55,.03,.97,.51,.94,1.06h0c-.03,.53-.47,.94-1,.94h0s-.04,0-.06,0Zm-.81-7.83c0-.55,.43-1,.99-1.01h0c.55,0,1.01,.44,1.01,.99h0c0,.55-.44,1.01-.99,1.01h-.01c-.54,0-.99-.44-1-.99Zm-.27-6.79h0c-.04-.55,.38-1.03,.93-1.06h0c.55-.04,1.03,.38,1.07,.93h0c.04,.55-.38,1.03-.93,1.06h0s-.05,0-.07,0h0c-.52,0-.96-.41-1-.93Z"></path></svg> 